<?xml version="1.0" encoding="utf-8"?>
<!-- Generator: Adobe Illustrator 26.2.1, SVG Export Plug-In . SVG Version: 6.00 Build 0)  -->
<svg version="1.1" id="레이어_1" xmlns="http://www.w3.org/2000/svg" xmlns:xlink="http://www.w3.org/1999/xlink" x="0px"
	 y="0px" viewBox="0 0 130 44" style="enable-background:new 0 0 130 44;" xml:space="preserve">
<style type="text/css">
	.st0{fill:#D9D9D9;}
</style>
<g>
	<ellipse class="st0" cx="64.1" cy="10.6" rx="60.4" ry="1.6"/>
	<path class="st0" d="M7.1,34.7c0,0-0.1,0.1-0.2,0.1H4.3c0,0-0.1,0-0.2-0.1c0,0-0.1-0.1-0.1-0.2V17.8c0,0,0-0.1,0.1-0.1
		c0,0,0.1-0.1,0.2-0.1h2.6c0.1,0,0.1,0,0.2,0.1s0.1,0.1,0.1,0.1l0,6l7.4-6.5c0.1-0.1,0.2-0.1,0.3,0l1.6,1.8c0.1,0.1,0.1,0.2,0,0.3
		L11,24.3c-1,0.8-1,2.3,0,3.2l6,5.5c0.1,0.1,0.1,0.2,0,0.3L15.2,35c-0.1,0.1-0.2,0.1-0.3,0l-7.8-7.2v6.8C7.1,34.6,7.1,34.6,7.1,34.7
		z"/>
	<path class="st0" d="M34.3,30.1c0,0.8-0.2,1.5-0.4,2.1c-0.3,0.6-0.7,1.1-1.2,1.6c-0.5,0.4-1.1,0.8-1.8,1c-0.7,0.2-1.5,0.3-2.3,0.3
		c-0.8,0-1.5-0.1-2.1-0.3s-1.2-0.5-1.7-0.9s-0.9-0.8-1.2-1.2c-0.3-0.5-0.6-0.9-0.8-1.4c-0.1-0.2,0-0.3,0.1-0.3l2.5-1
		c0.1,0,0.2,0.1,0.2,0.2c0.1,0.3,0.3,0.6,0.5,0.9c0.2,0.3,0.4,0.5,0.7,0.8c0.3,0.2,0.6,0.5,1,0.6c0.3,0.1,0.6,0.2,0.9,0.2
		c0.8,0,1.4-0.2,1.9-0.6s0.8-1,0.8-1.6c0-0.7-0.2-1.2-0.6-1.6c-0.4-0.4-0.9-0.8-1.5-1.1s-1.2-0.6-1.9-0.8c-0.7-0.2-1.3-0.6-1.9-1
		c-0.6-0.4-1.1-0.9-1.5-1.4c-0.4-0.6-0.6-1.3-0.6-2.2c0-0.8,0.2-1.4,0.4-2c0.3-0.6,0.7-1.1,1.2-1.5c0.5-0.4,1.1-0.7,1.7-1
		c0.6-0.2,1.3-0.3,1.9-0.3c0.6,0,1.1,0.1,1.7,0.2s1.1,0.3,1.5,0.5c0.5,0.2,0.9,0.6,1.3,1s0.7,0.9,1,1.5c0,0,0,0.1,0,0.2
		c0,0.1-0.1,0.1-0.1,0.2l-2.3,1c-0.1,0-0.2,0-0.3-0.1c-0.1-0.2-0.2-0.4-0.4-0.6c-0.2-0.2-0.4-0.4-0.6-0.6s-0.5-0.3-0.7-0.4
		s-0.6-0.1-0.9-0.1c-0.7,0-1.3,0.2-1.7,0.6s-0.7,0.9-0.7,1.5c0,0.5,0.2,0.9,0.6,1.2c0.4,0.3,0.9,0.6,1.5,0.9
		c0.6,0.3,1.2,0.5,1.9,0.8c0.7,0.3,1.3,0.6,1.9,1c0.6,0.4,1.1,1,1.5,1.6C34.1,28.3,34.3,29.1,34.3,30.1z"/>
	<path class="st0" d="M44.2,34.7c-0.1,0-0.1,0.1-0.1,0.1h-2.7c-0.1,0-0.2-0.1-0.2-0.2v-10c0-2.4-1.9-4.3-4.3-4.3h-0.1
		c-0.1,0-0.1,0-0.1-0.1s-0.1-0.1-0.1-0.2v-2.2c0,0,0-0.1,0.1-0.1c0,0,0.1-0.1,0.2-0.1h11.6c0.1,0,0.1,0,0.2,0.1s0.1,0.1,0.1,0.1V20
		c0,0.1-0.1,0.2-0.2,0.2l0,0c-2.4,0-4.3,1.9-4.3,4.3v10C44.2,34.6,44.2,34.6,44.2,34.7z"/>
	<path class="st0" d="M51.8,30.6l-1.6,4.4c-0.1,0.1-0.2,0.2-0.3,0.1l-2.3-0.8c-0.1-0.1-0.2-0.2-0.1-0.4l5.9-15.7
		c0.1-0.3,0.3-0.5,0.6-0.6c0.3-0.1,0.6-0.2,1-0.2s0.7,0.1,1,0.2c0.3,0.1,0.5,0.3,0.6,0.6l5.9,15.7c0.1,0.2,0,0.3-0.1,0.4L59.9,35
		c-0.2,0.1-0.3,0-0.3-0.1l-1.6-4.4C57.9,30.6,51.8,30.6,51.8,30.6z M56.3,26.3l-1.5-3.9l-1.5,3.9c-0.3,0.8,0.3,1.7,1.2,1.7h0.6
		C56,27.9,56.6,27.1,56.3,26.3z"/>
	<path class="st0" d="M79.6,26.2c0,1.3-0.2,2.5-0.7,3.5s-1.1,2-1.8,2.7c-0.8,0.7-1.7,1.3-2.8,1.7c-1.1,0.4-2.2,0.6-3.4,0.6H66
		c-0.1,0-0.1,0-0.2-0.1c-0.1,0-0.1-0.1-0.1-0.2V17.8c0,0,0-0.1,0.1-0.1s0.1-0.1,0.2-0.1h4.9c1.2,0,2.3,0.2,3.4,0.6s2,1,2.8,1.7
		s1.4,1.6,1.8,2.7C79.4,23.7,79.6,24.9,79.6,26.2z M76.5,26.2c0-2-0.5-3.4-1.6-4.4c-1.1-1-2.6-1.5-4.4-1.5l0,0
		c-0.9,0-1.6,0.7-1.6,1.6v8.6c0,0.9,0.7,1.6,1.6,1.6l0,0c1.9,0,3.4-0.5,4.4-1.5C76,29.6,76.5,28.1,76.5,26.2z"/>
	<path class="st0" d="M85.4,34.7h-2.6c-0.1,0-0.2-0.1-0.2-0.2V17.8c0,0,0-0.1,0.1-0.1c0,0,0.1-0.1,0.1-0.1h2.6c0.1,0,0.1,0,0.2,0.1
		s0.1,0.1,0.1,0.1v16.7C85.6,34.7,85.5,34.7,85.4,34.7z"/>
	<path class="st0" d="M101.9,31.3c-0.3,0.8-0.8,1.4-1.4,1.9c-0.6,0.5-1.3,1-2.1,1.2c-0.8,0.3-1.6,0.4-2.6,0.4s-1.8-0.2-2.6-0.4
		c-0.8-0.3-1.5-0.7-2.1-1.2c-0.6-0.5-1-1.2-1.4-1.9c-0.3-0.8-0.5-1.6-0.5-2.5v-11c0,0,0-0.1,0.1-0.1s0.1-0.1,0.1-0.1h2.6
		c0.1,0,0.1,0,0.2,0.1s0.1,0.1,0.1,0.1v11c0,1.1,0.3,2,0.9,2.6c0.6,0.6,1.4,1,2.4,1c1,0,1.9-0.3,2.5-1c0.6-0.6,0.9-1.5,0.9-2.6v-11
		c0,0,0-0.1,0.1-0.1c0.1,0,0.1-0.1,0.1-0.1h2.6c0.1,0,0.1,0,0.2,0.1s0.1,0.1,0.1,0.1v11C102.4,29.7,102.2,30.6,101.9,31.3z"/>
	<path class="st0" d="M121.1,17.6c0.4-0.1,0.7-0.2,1.1-0.2s0.7,0.1,1,0.3s0.4,0.4,0.4,0.8v16c0,0.1,0,0.1-0.1,0.2s-0.1,0.1-0.1,0.1
		h-2.6c-0.2,0-0.2-0.1-0.2-0.2v-9.8l-4.2,9.4c-0.1,0.1-0.1,0.2-0.3,0.2h-2.5c-0.1,0-0.2-0.1-0.3-0.2l-4.2-9.4v9.8
		c0,0.1,0,0.1-0.1,0.2s-0.1,0.1-0.2,0.1h-2.6c-0.1,0-0.1,0-0.1-0.1c-0.1,0-0.1-0.1-0.1-0.2v-16c0-0.3,0.1-0.6,0.4-0.8
		c0.3-0.2,0.6-0.3,1-0.3c0.4,0,0.8,0,1.1,0.2s0.6,0.4,0.8,0.6l1.4,3c1.6,3.5,6.6,3.5,8.1,0l1.4-3C120.4,17.9,120.7,17.7,121.1,17.6z
		"/>
</g>
</svg>
