<?xml version="1.0" encoding="utf-8"?>
<!-- Generator: Adobe Illustrator 26.0.2, SVG Export Plug-In . SVG Version: 6.00 Build 0)  -->
<svg version="1.1" id="레이어_1" xmlns="http://www.w3.org/2000/svg" xmlns:xlink="http://www.w3.org/1999/xlink" x="0px"
	 y="0px" viewBox="0 0 176 44" style="enable-background:new 0 0 176 44;" xml:space="preserve">
<style type="text/css">
	.st0{fill:#F5F5F5;}
	.st1{fill:url(#SVGID_1_);}
	.st2{fill:#9F9F9F;}
	.st3{fill:#FFFFFF;}
	.st4{fill:#AAAAAA;}
	.st5{fill:#D9D9D9;}
</style>
<g>
	<path class="st0" d="M43.07,9.35c-0.09-0.23-0.28-0.46-0.45-0.64c-0.09-0.09-0.18-0.19-0.31-0.19c-0.12,0-0.22,0.08-0.31,0.15
		c-3.85,3.21-8.5,5.53-13.42,6.54c-1.91,0.39-3.86,0.58-5.82,0.59c-1.96-0.01-3.91-0.2-5.82-0.59c-4.93-1.01-9.58-3.33-13.42-6.54
		C3.42,8.59,3.31,8.51,3.19,8.52c-0.12,0.01-0.22,0.1-0.31,0.19C2.71,8.89,2.53,9.12,2.44,9.35c-0.08,0.19-0.1,0.38-0.01,0.57
		c0.06,0.12,0.16,0.22,0.26,0.32c1.73,1.67,3.47,3.32,5.19,5c1.79,1.75,3.43,3.68,4.55,5.94c2.11,4.24,2.94,9.29,2.88,14
		c0.81,0.17,4.25,0.29,7.41,1.8l0.03,0.02l0.04-0.02c3.16-1.51,6.6-1.63,7.41-1.8c-0.05-4.72,0.78-9.77,2.88-14
		c1.12-2.26,2.76-4.18,4.55-5.94c1.72-1.68,3.46-3.34,5.19-5c0.1-0.09,0.2-0.19,0.26-0.32C43.16,9.73,43.14,9.54,43.07,9.35z
		 M42.99,9.83c-0.04,0.07-0.12,0.15-0.19,0.23c-0.47,0.45-1.01,0.95-1.48,1.4c-0.49,0.47-0.98,0.94-1.48,1.4
		c-2.78,2.57-5.07,4.67-6.93,8.19c-1.69,3.2-2.64,6.93-2.96,10.53c-0.1,1.11-0.14,2.23-0.14,3.35c-0.15,0.02-0.33,0.04-0.53,0.07
		c-1.44,0.17-3.99,0.63-6.53,1.82c-2.54-1.18-5.1-1.64-6.53-1.82c-0.21-0.02-0.39-0.05-0.53-0.07c0-1.12-0.04-2.23-0.14-3.35
		c-0.31-3.6-1.27-7.33-2.95-10.53c-1.85-3.52-4.15-5.62-6.93-8.19c-0.5-0.46-0.99-0.94-1.48-1.4c-0.47-0.45-1.01-0.95-1.48-1.4
		C2.63,9.99,2.55,9.91,2.52,9.83C2.49,9.78,2.46,9.68,2.53,9.51c0.06-0.16,0.21-0.44,0.41-0.65c0.08-0.09,0.15-0.05,0.19-0.03
		c0.01,0.01,0.01,0.01,0.02,0.02c3.99,3.31,8.78,7.21,13.7,8.22c1.9,0.39,3.89,0.59,5.91,0.6c2.02-0.01,4.01-0.21,5.91-0.6
		c4.92-1.01,9.7-4.91,13.7-8.22c0.01,0,0.01-0.01,0.02-0.02c0.03-0.02,0.11-0.06,0.19,0.03c0.2,0.21,0.35,0.49,0.41,0.65
		C43.04,9.68,43.02,9.78,42.99,9.83z"/>
	
		<radialGradient id="SVGID_1_" cx="-16544.209" cy="-8595.8857" r="551.4142" gradientTransform="matrix(0.0316 0 0 0.0316 545.3262 294.3211)" gradientUnits="userSpaceOnUse">
		<stop  offset="0" style="stop-color:#C2C2C2"/>
		<stop  offset="1" style="stop-color:#E9E9E9"/>
	</radialGradient>
	<path class="st1" d="M42.57,8.87c-0.08-0.09-0.15-0.05-0.19-0.03c-0.01,0.01-0.01,0.01-0.02,0.02c-3.99,3.31-8.78,7.21-13.7,8.22
		c-1.9,0.39-3.89,0.59-5.91,0.6c-2.02-0.01-4.01-0.21-5.91-0.6c-4.92-1.01-9.7-4.91-13.7-8.22c-0.01,0-0.01-0.01-0.02-0.02
		C3.1,8.81,3.02,8.78,2.94,8.86C2.74,9.07,2.6,9.36,2.53,9.51C2.46,9.68,2.49,9.78,2.52,9.83c0.04,0.07,0.12,0.15,0.19,0.23
		c0.47,0.45,1.01,0.95,1.48,1.4c0.49,0.47,0.98,0.94,1.48,1.4c2.78,2.57,5.07,4.67,6.93,8.19c1.69,3.2,2.64,6.93,2.95,10.53
		c0.1,1.11,0.14,2.23,0.14,3.35c0.14,0.02,0.33,0.04,0.53,0.07c1.44,0.17,3.99,0.63,6.53,1.82c2.54-1.18,5.1-1.64,6.53-1.82
		c0.21-0.02,0.39-0.05,0.53-0.07c0-1.12,0.04-2.23,0.14-3.35c0.31-3.6,1.27-7.33,2.96-10.53c1.85-3.52,4.15-5.62,6.93-8.19
		c0.5-0.46,0.99-0.94,1.48-1.4c0.47-0.45,1.01-0.95,1.48-1.4c0.08-0.08,0.16-0.15,0.19-0.23c0.03-0.06,0.05-0.15-0.01-0.32
		C42.91,9.36,42.76,9.07,42.57,8.87z M22.75,19.64c0.21,0,0.38,0.17,0.38,0.38c0,0.21-0.17,0.38-0.38,0.38
		c-0.21,0-0.38-0.17-0.38-0.38C22.37,19.81,22.54,19.64,22.75,19.64z M16.16,21.35c-0.24,0-0.44-0.2-0.44-0.44
		c0-0.24,0.2-0.44,0.44-0.44c0.24,0,0.44,0.2,0.44,0.44C16.6,21.15,16.4,21.35,16.16,21.35z M25.87,30.62
		c-0.57,0.07-1.47,0.09-2.91,0.09h0h-0.42h0c-1.43,0-2.34-0.01-2.91-0.09c-0.84-3.68-1.88-7.05-3-9.01c-0.01-0.02,0.01-0.01,0.03,0
		c0.98,0.59,1.93,0.84,2.79,0.84c1.44,0,2.62-0.69,3.31-1.64c0.68,0.95,1.87,1.64,3.31,1.64c0.86,0,1.8-0.25,2.79-0.84
		c0.02-0.01,0.04-0.02,0.03,0C27.75,23.57,26.71,26.94,25.87,30.62z M29.35,21.29c-0.21,0-0.38-0.17-0.38-0.38
		c0-0.21,0.17-0.38,0.38-0.38c0.21,0,0.38,0.17,0.38,0.38C29.73,21.12,29.56,21.29,29.35,21.29z"/>
	<path class="st0" d="M25.97,30.73c-0.59,0.09-1.57,0.1-3.21,0.1h-0.02c-1.64,0-2.62-0.01-3.21-0.1l-3.85,4.19
		c0.14,0.02,0.33,0.04,0.53,0.07c1.44,0.17,3.99,0.63,6.53,1.82c2.54-1.18,5.1-1.64,6.53-1.82c0.21-0.02,0.39-0.05,0.53-0.07
		L25.97,30.73z"/>
	<path class="st2" d="M29.82,34.93c-0.15,0.02-0.33,0.04-0.53,0.07c-1.44,0.17-3.99,0.63-6.53,1.82c-2.54-1.18-5.1-1.64-6.53-1.82
		c-0.21-0.02-0.39-0.05-0.53-0.07l-0.38,0.25c0.82,0.17,4.24,0.29,7.41,1.8l0.03,0.02l0.04-0.02c3.17-1.51,6.59-1.63,7.41-1.8
		L29.82,34.93z"/>
	<path class="st3" d="M28.87,21.62c-1.26,2.48-2,5.17-2.9,9.12c-0.59,0.09-1.58,0.1-3.21,0.1h-0.02c-1.64,0-2.62-0.01-3.22-0.09
		c-0.11-0.49-0.22-0.98-0.32-1.43c-0.05-0.23-0.11-0.45-0.16-0.67c-0.03-0.11-0.05-0.22-0.08-0.33c-0.05-0.22-0.11-0.43-0.16-0.64
		c-0.13-0.52-0.27-1.02-0.41-1.49c-0.11-0.38-0.23-0.75-0.34-1.11c-0.06-0.18-0.12-0.35-0.18-0.53c-0.18-0.52-0.37-1.02-0.58-1.51
		c-0.1-0.24-0.21-0.48-0.32-0.72c-0.11-0.24-0.22-0.47-0.34-0.7c1.12,1.96,2.17,5.33,3,9.01c0.57,0.07,1.47,0.09,2.91,0.09h0.42
		c1.44,0,2.34-0.01,2.91-0.09C26.71,26.94,27.75,23.57,28.87,21.62z"/>
	<path class="st4" d="M43,9.82c-0.04,0.07-0.12,0.15-0.19,0.23c-0.47,0.45-1.01,0.95-1.48,1.4c-0.49,0.47-0.98,0.94-1.48,1.4
		c-2.78,2.57-5.07,4.67-6.93,8.19c-1.69,3.2-2.64,6.93-2.96,10.53c-0.1,1.11-0.14,2.23-0.14,3.35c-0.15,0.02-0.33,0.04-0.53,0.07
		c-1.44,0.17-3.99,0.63-6.53,1.82c-2.54-1.18-5.1-1.64-6.53-1.82c-0.21-0.02-0.39-0.05-0.53-0.07c0-1.12-0.04-2.23-0.14-3.35
		c-0.31-3.6-1.27-7.33-2.95-10.53c-1.85-3.52-4.15-5.62-6.93-8.19c-0.5-0.46-0.99-0.94-1.48-1.4C3.73,11,3.19,10.5,2.72,10.05
		C2.64,9.97,2.56,9.9,2.53,9.82L2.44,9.91c0.06,0.12,0.16,0.22,0.26,0.32c1.73,1.67,3.47,3.32,5.19,5c1.79,1.75,3.43,3.68,4.55,5.94
		c2.11,4.24,2.94,9.29,2.88,14c0.81,0.17,4.25,0.29,7.41,1.8l0.03,0.02l0.04-0.02c3.16-1.51,6.6-1.63,7.41-1.8
		c-0.05-4.72,0.78-9.77,2.88-14c1.12-2.26,2.76-4.18,4.55-5.94c1.72-1.68,3.46-3.34,5.19-5c0.1-0.09,0.2-0.19,0.26-0.32L43,9.82z"/>
</g>
<g>
	<ellipse class="st5" cx="111.42" cy="10.61" rx="60.39" ry="1.63"/>
	<path class="st5" d="M54.41,34.68c-0.05,0.04-0.11,0.06-0.17,0.06h-2.62c-0.05,0-0.09-0.02-0.15-0.06
		c-0.05-0.04-0.08-0.09-0.08-0.15V17.84c0-0.05,0.03-0.09,0.08-0.15c0.05-0.05,0.1-0.08,0.15-0.08h2.62c0.06,0,0.12,0.03,0.17,0.08
		c0.05,0.05,0.08,0.1,0.08,0.15l-0.02,5.98l7.43-6.45c0.12-0.09,0.24-0.08,0.34,0.02l1.64,1.82c0.08,0.09,0.07,0.18-0.02,0.27
		l-5.52,4.8c-0.96,0.83-0.98,2.32-0.04,3.18l6.02,5.5c0.08,0.08,0.08,0.17,0,0.27l-1.73,1.76c-0.09,0.12-0.2,0.12-0.32,0l-7.78-7.23
		v6.77C54.49,34.59,54.47,34.64,54.41,34.68z"/>
	<path class="st5" d="M81.66,30.08c0,0.76-0.15,1.45-0.43,2.05c-0.29,0.61-0.69,1.13-1.2,1.56c-0.51,0.43-1.12,0.77-1.84,1
		c-0.71,0.24-1.5,0.35-2.35,0.35c-0.78,0-1.48-0.11-2.12-0.32c-0.64-0.21-1.2-0.5-1.68-0.86c-0.48-0.36-0.89-0.76-1.22-1.22
		c-0.33-0.46-0.59-0.94-0.78-1.44c-0.06-0.17-0.02-0.27,0.14-0.3l2.46-1.05c0.12,0,0.2,0.06,0.23,0.18c0.11,0.3,0.26,0.6,0.46,0.89
		c0.2,0.29,0.43,0.54,0.68,0.76c0.29,0.25,0.63,0.45,1.01,0.59c0.28,0.1,0.58,0.15,0.88,0.15c0.77,0,1.42-0.2,1.93-0.6
		c0.51-0.4,0.76-0.95,0.76-1.63c0-0.67-0.2-1.21-0.59-1.62c-0.4-0.41-0.89-0.76-1.48-1.06s-1.24-0.57-1.94-0.82
		c-0.7-0.25-1.35-0.57-1.94-0.95c-0.59-0.38-1.09-0.85-1.48-1.43c-0.4-0.57-0.59-1.31-0.59-2.22c0-0.76,0.15-1.44,0.44-2.04
		c0.3-0.6,0.69-1.11,1.19-1.52c0.49-0.41,1.06-0.73,1.69-0.95c0.63-0.22,1.28-0.33,1.95-0.33c0.58,0,1.14,0.06,1.68,0.17
		c0.54,0.11,1.05,0.3,1.52,0.55c0.47,0.25,0.9,0.58,1.29,0.98c0.39,0.4,0.72,0.89,0.99,1.47c0.03,0.05,0.04,0.11,0.02,0.18
		c-0.02,0.08-0.05,0.13-0.11,0.16l-2.3,0.98c-0.12,0.05-0.21,0-0.27-0.14c-0.09-0.2-0.22-0.4-0.39-0.6
		c-0.17-0.21-0.36-0.39-0.58-0.56c-0.22-0.17-0.47-0.3-0.74-0.4c-0.27-0.1-0.57-0.15-0.89-0.15c-0.71,0-1.29,0.21-1.73,0.64
		c-0.44,0.43-0.66,0.93-0.66,1.51c0,0.52,0.2,0.93,0.59,1.24c0.4,0.31,0.89,0.6,1.48,0.86c0.59,0.26,1.24,0.52,1.93,0.8
		c0.69,0.27,1.33,0.62,1.93,1.04c0.59,0.42,1.09,0.95,1.48,1.6C81.47,28.26,81.66,29.08,81.66,30.08z"/>
	<path class="st5" d="M91.52,34.68c-0.05,0.04-0.09,0.06-0.14,0.06h-2.65c-0.11,0-0.21-0.09-0.21-0.21V24.52
		c0-2.36-1.91-4.26-4.26-4.26h-0.05c-0.05,0-0.09-0.02-0.14-0.07c-0.05-0.05-0.07-0.1-0.07-0.16v-2.19c0-0.05,0.02-0.09,0.06-0.15
		c0.04-0.05,0.09-0.08,0.15-0.08h11.63c0.06,0,0.11,0.03,0.16,0.08c0.05,0.05,0.07,0.1,0.07,0.15v2.19c0,0.13-0.1,0.23-0.23,0.23
		l0,0c-2.36,0-4.26,1.91-4.26,4.26v10.01C91.59,34.59,91.57,34.64,91.52,34.68z"/>
	<path class="st5" d="M99.12,30.58l-1.62,4.36c-0.06,0.14-0.17,0.17-0.32,0.11l-2.33-0.8c-0.14-0.09-0.18-0.21-0.14-0.36l5.93-15.69
		c0.11-0.27,0.31-0.48,0.6-0.62c0.3-0.14,0.62-0.2,0.96-0.2s0.66,0.07,0.96,0.2c0.3,0.14,0.5,0.34,0.6,0.62l5.93,15.69
		c0.05,0.15,0,0.27-0.14,0.36l-2.33,0.8c-0.17,0.06-0.27,0.02-0.32-0.11l-1.62-4.36H99.12z M103.67,26.28l-1.47-3.9l-1.46,3.91
		c-0.3,0.8,0.29,1.66,1.15,1.66h0.63C103.38,27.94,103.97,27.08,103.67,26.28z"/>
	<path class="st5" d="M126.93,26.18c0,1.31-0.22,2.49-0.67,3.55c-0.45,1.06-1.06,1.95-1.85,2.69c-0.78,0.74-1.7,1.31-2.76,1.71
		c-1.06,0.4-2.19,0.6-3.39,0.6h-4.95c-0.05,0-0.09-0.02-0.15-0.06c-0.05-0.04-0.08-0.09-0.08-0.15V17.84c0-0.05,0.03-0.09,0.08-0.15
		s0.1-0.08,0.15-0.08h4.95c1.2,0,2.33,0.2,3.39,0.6c1.06,0.4,1.98,0.98,2.76,1.72s1.4,1.65,1.85,2.7
		C126.7,23.69,126.93,24.88,126.93,26.18z M123.85,26.18c0-1.95-0.53-3.42-1.6-4.42c-1.06-1-2.55-1.51-4.45-1.51l0,0
		c-0.89,0-1.62,0.72-1.62,1.62v8.6c0,0.89,0.72,1.62,1.62,1.62l0,0c1.9,0,3.38-0.5,4.45-1.51
		C123.32,29.58,123.85,28.11,123.85,26.18z"/>
	<path class="st5" d="M132.72,34.74h-2.62c-0.11,0-0.21-0.09-0.21-0.21V17.84c0-0.05,0.02-0.09,0.06-0.15
		c0.04-0.05,0.09-0.08,0.15-0.08h2.62c0.08,0,0.13,0.03,0.17,0.08c0.04,0.05,0.06,0.1,0.06,0.15v16.69
		C132.95,34.67,132.87,34.74,132.72,34.74z"/>
	<path class="st5" d="M149.25,31.34c-0.33,0.76-0.79,1.41-1.38,1.94c-0.59,0.53-1.27,0.95-2.06,1.24c-0.79,0.3-1.64,0.44-2.55,0.44
		c-0.91,0-1.76-0.15-2.55-0.44c-0.79-0.3-1.47-0.71-2.05-1.24c-0.58-0.53-1.03-1.18-1.37-1.94c-0.33-0.76-0.5-1.6-0.5-2.53V17.84
		c0-0.05,0.03-0.09,0.08-0.15s0.1-0.08,0.15-0.08h2.62c0.06,0,0.12,0.03,0.17,0.08c0.05,0.05,0.08,0.1,0.08,0.15v10.97
		c0,1.09,0.31,1.96,0.92,2.59c0.62,0.63,1.43,0.95,2.45,0.95c1.03,0,1.86-0.32,2.49-0.95c0.62-0.63,0.94-1.49,0.94-2.59V17.84
		c0-0.05,0.02-0.09,0.07-0.15c0.05-0.05,0.09-0.08,0.14-0.08h2.65c0.06,0,0.11,0.03,0.16,0.08c0.05,0.05,0.07,0.1,0.07,0.15v10.97
		C149.75,29.73,149.59,30.58,149.25,31.34z"/>
	<path class="st5" d="M168.41,17.59c0.36-0.14,0.74-0.19,1.13-0.16c0.39,0.03,0.73,0.14,1.03,0.32c0.3,0.18,0.45,0.44,0.45,0.78
		v16.01c0,0.06-0.02,0.11-0.07,0.15c-0.05,0.04-0.09,0.06-0.14,0.06h-2.62c-0.17,0-0.25-0.07-0.25-0.21v-9.78l-4.17,9.37
		c-0.05,0.12-0.14,0.18-0.27,0.18H161c-0.14,0-0.23-0.06-0.27-0.18l-4.17-9.37v9.78c0,0.06-0.03,0.11-0.08,0.15
		c-0.05,0.04-0.11,0.06-0.17,0.06h-2.62c-0.05,0-0.09-0.02-0.15-0.06c-0.05-0.04-0.08-0.09-0.08-0.15V18.52
		c0-0.33,0.15-0.59,0.44-0.78c0.3-0.18,0.64-0.29,1.03-0.32c0.39-0.03,0.77,0.02,1.14,0.16c0.37,0.14,0.63,0.35,0.76,0.64l1.35,3.01
		c1.57,3.51,6.55,3.51,8.13,0.01l1.36-3.01C167.79,17.94,168.04,17.72,168.41,17.59z"/>
</g>
</svg>
