<?xml version="1.0" encoding="utf-8"?>
<!-- Generator: Adobe Illustrator 26.2.1, SVG Export Plug-In . SVG Version: 6.00 Build 0)  -->
<svg version="1.1" id="레이어_1" xmlns="http://www.w3.org/2000/svg" xmlns:xlink="http://www.w3.org/1999/xlink" x="0px"
	 y="0px" viewBox="0 0 440 300" style="enable-background:new 0 0 440 300;" xml:space="preserve">
<style type="text/css">
	.st0{fill:#F5F6F6;}
	.st1{fill:url(#SVGID_1_);}
	.st2{fill:#9F9F9F;}
	.st3{fill:#FFFFFF;}
	.st4{fill:#ABABAB;}
</style>
<g>
	<path class="st0" d="M429.7,10.6c-0.9-2.4-2.9-4.8-4.7-6.6c-0.9-0.9-1.9-2-3.2-2c-1.2,0-2.3,0.8-3.2,1.6
		c-39.8,33.2-87.8,57.2-138.7,67.6c-19.7,4-39.9,6-60.1,6.1c-20.3-0.1-40.4-2.1-60.1-6.1c-51-10.4-99-34.4-138.7-67.6
		c-1-0.8-2.2-1.7-3.4-1.6c-1.2,0.1-2.3,1-3.2,2c-1.8,1.9-3.6,4.2-4.5,6.6c-0.8,2-1,3.9-0.1,5.9c0.6,1.2,1.7,2.3,2.7,3.3
		C30.3,37,48.2,54.1,66,71.5c18.5,18.1,35.4,38,47,61.4c21.8,43.8,30.4,96,29.8,144.7c8.4,1.8,43.9,3,76.6,18.6l0.3,0.2l0.4-0.2
		c32.7-15.6,68.2-16.8,76.6-18.6c-0.5-48.8,8.1-101,29.8-144.7c11.6-23.4,28.5-43.2,47-61.4c17.8-17.4,35.8-34.5,53.6-51.7
		c1-0.9,2.1-2,2.7-3.3C430.6,14.5,430.4,12.6,429.7,10.6z M428.9,15.5c-0.4,0.7-1.2,1.6-2,2.4c-4.9,4.7-10.4,9.8-15.3,14.5
		c-5.1,4.9-10.1,9.7-15.3,14.5c-28.7,26.6-52.4,48.3-71.6,84.6c-17.5,33.1-27.3,71.6-30.6,108.8c-1,11.5-1.4,23-1.4,34.6
		c-1.6,0.2-3.4,0.4-5.5,0.7c-14.9,1.8-41.2,6.5-67.5,18.8c-26.3-12.2-52.7-16.9-67.5-18.8c-2.2-0.2-4-0.5-5.5-0.7
		c0-11.6-0.4-23-1.4-34.6c-3.2-37.2-13.1-75.8-30.5-108.8C95.7,95.1,71.9,73.4,43.2,46.9c-5.2-4.8-10.2-9.7-15.3-14.5
		c-4.9-4.7-10.4-9.8-15.3-14.5c-0.8-0.7-1.7-1.6-2-2.4C10.3,15,10,14,10.7,12.2c0.6-1.7,2.2-4.5,4.2-6.7c0.8-0.9,1.6-0.5,2-0.3
		C17,5.3,17,5.3,17.1,5.4c41.2,34.2,90.7,74.5,141.6,85c19.6,4,40.2,6.1,61.1,6.2c20.9-0.1,41.4-2.2,61.1-6.2
		c50.8-10.4,100.2-50.7,141.6-85c0.1,0,0.1-0.1,0.2-0.2c0.3-0.2,1.1-0.6,2,0.3c2.1,2.2,3.6,5.1,4.2,6.7
		C429.4,14,429.2,15,428.9,15.5z"/>
	
		<radialGradient id="SVGID_1_" cx="-7951.7212" cy="-5565.0479" r="5698.7217" gradientTransform="matrix(3.160000e-02 0 0 -3.160000e-02 468.6871 -27.3918)" gradientUnits="userSpaceOnUse">
		<stop  offset="0" style="stop-color:#C2C2C2"/>
		<stop  offset="1" style="stop-color:#E9E8E9"/>
	</radialGradient>
	<path class="st1" d="M424.5,5.6c-0.8-0.9-1.6-0.5-2-0.3c-0.1,0.1-0.1,0.1-0.2,0.2c-41.2,34.2-90.7,74.5-141.6,85
		c-19.6,4-40.2,6.1-61.1,6.2c-20.9-0.1-41.4-2.2-61.1-6.2C107.8,80,58.4,39.7,17,5.5c-0.1,0-0.1-0.1-0.2-0.2c-0.2-0.3-1-0.6-1.9,0.2
		c-2.1,2.2-3.5,5.2-4.2,6.7C10,14,10.3,15,10.6,15.5c0.4,0.7,1.2,1.6,2,2.4c4.9,4.7,10.4,9.8,15.3,14.5c5.1,4.9,10.1,9.7,15.3,14.5
		c28.7,26.6,52.4,48.3,71.6,84.6c17.5,33.1,27.3,71.6,30.5,108.8c1,11.5,1.4,23,1.4,34.6c1.4,0.2,3.4,0.4,5.5,0.7
		c14.9,1.8,41.2,6.5,67.5,18.8c26.3-12.2,52.7-16.9,67.5-18.8c2.2-0.2,4-0.5,5.5-0.7c0-11.6,0.4-23,1.4-34.6
		c3.2-37.2,13.1-75.8,30.6-108.8c19.1-36.4,42.9-58.1,71.6-84.6c5.2-4.8,10.2-9.7,15.3-14.5c4.9-4.7,10.4-9.8,15.3-14.5
		c0.8-0.8,1.7-1.6,2-2.4c0.3-0.6,0.5-1.6-0.1-3.3C428,10.7,426.5,7.7,424.5,5.6z M219.7,116.9c2.2,0,3.9,1.8,3.9,3.9
		s-1.8,3.9-3.9,3.9s-3.9-1.8-3.9-3.9S217.5,116.9,219.7,116.9z M151.6,134.6c-2.5,0-4.5-2.1-4.5-4.5c0-2.5,2.1-4.5,4.5-4.5
		c2.5,0,4.5,2.1,4.5,4.5C156.1,132.5,154.1,134.6,151.6,134.6z M251.9,230.4c-5.9,0.7-15.2,0.9-30.1,0.9l0,0h-4.3l0,0
		c-14.8,0-24.2-0.1-30.1-0.9c-8.7-38-19.4-72.9-31-93.1c-0.1-0.2,0.1-0.1,0.3,0c10.1,6.1,19.9,8.7,28.8,8.7
		c14.9,0,27.1-7.1,34.2-16.9c7,9.8,19.3,16.9,34.2,16.9c8.9,0,18.6-2.6,28.8-8.7c0.2-0.1,0.4-0.2,0.3,0
		C271.4,157.5,260.6,192.4,251.9,230.4z M287.9,134c-2.2,0-3.9-1.8-3.9-3.9s1.8-3.9,3.9-3.9s3.9,1.8,3.9,3.9S290.1,134,287.9,134z"
		/>
	<path class="st0" d="M253,231.5c-6.1,0.9-16.2,1-33.2,1h-0.2c-16.9,0-27.1-0.1-33.2-1l-39.8,43.3c1.4,0.2,3.4,0.4,5.5,0.7
		c14.9,1.8,41.2,6.5,67.5,18.8c26.3-12.2,52.7-16.9,67.5-18.8c2.2-0.2,4-0.5,5.5-0.7L253,231.5z"/>
	<path class="st2" d="M292.8,274.9c-1.6,0.2-3.4,0.4-5.5,0.7c-14.9,1.8-41.2,6.5-67.5,18.8c-26.3-12.2-52.7-16.9-67.5-18.8
		c-2.2-0.2-4-0.5-5.5-0.7l-3.9,2.6c8.5,1.8,43.8,3,76.6,18.6l0.3,0.2l0.4-0.2c32.8-15.6,68.1-16.8,76.6-18.6L292.8,274.9z"/>
	<path class="st3" d="M282.9,137.4c-13,25.6-20.7,53.4-30,94.3c-6.1,0.9-16.3,1-33.2,1h-0.2c-16.9,0-27.1-0.1-33.3-0.9
		c-1.1-5.1-2.3-10.1-3.3-14.8c-0.5-2.4-1.1-4.7-1.7-6.9c-0.3-1.1-0.5-2.3-0.8-3.4c-0.5-2.3-1.1-4.4-1.7-6.6
		c-1.3-5.4-2.8-10.5-4.2-15.4c-1.1-3.9-2.4-7.8-3.5-11.5c-0.6-1.9-1.2-3.6-1.9-5.5c-1.9-5.4-3.8-10.5-6-15.6c-1-2.5-2.2-5-3.3-7.4
		s-2.3-4.9-3.5-7.2c11.6,20.3,22.4,55.1,31,93.1c5.9,0.7,15.2,0.9,30.1,0.9h4.3c14.9,0,24.2-0.1,30.1-0.9
		C260.6,192.4,271.4,157.5,282.9,137.4z"/>
	<path class="st4" d="M429,15.4c-0.4,0.7-1.2,1.6-2,2.4c-4.9,4.7-10.4,9.8-15.3,14.5c-5.1,4.9-10.1,9.7-15.3,14.5
		C367.7,73.3,344,95,324.8,131.4c-17.5,33.1-27.3,71.6-30.6,108.8c-1,11.5-1.4,23-1.4,34.6c-1.6,0.2-3.4,0.4-5.5,0.7
		c-14.9,1.8-41.2,6.5-67.5,18.8c-26.3-12.2-52.7-16.9-67.5-18.8c-2.2-0.2-4-0.5-5.5-0.7c0-11.6-0.4-23-1.4-34.6
		c-3.2-37.2-13.1-75.8-30.5-108.8C95.8,95,72,73.3,43.3,46.8C38.1,42,33,37,28,32.3c-4.9-4.7-10.4-9.8-15.3-14.5
		c-0.8-0.8-1.7-1.6-2-2.4l-0.9,0.9c0.6,1.2,1.7,2.3,2.7,3.3C30.4,36.9,48.3,54,66.1,71.4c18.5,18.1,35.4,38,47,61.4
		c21.8,43.8,30.4,96,29.8,144.7c8.4,1.8,43.9,3,76.6,18.6l0.3,0.2l0.4-0.2c32.7-15.6,68.2-16.8,76.6-18.6
		c-0.5-48.8,8.1-101,29.8-144.7c11.6-23.4,28.5-43.2,47-61.4c17.8-17.4,35.8-34.5,53.6-51.7c1-0.9,2.1-2,2.7-3.3L429,15.4z"/>
</g>
</svg>
